<svg width="24" height="24" viewBox="0 0 24 24" fill="none" xmlns="http://www.w3.org/2000/svg">
  <path d="M3 22H21" stroke="currentColor" stroke-width="1.5" stroke-linecap="round" stroke-linejoin="round"/>
  <path d="M5.59998 8.38H4.07998C3.47998 8.38 2.97998 8.88 2.97998 9.48V18.48C2.97998 19.08 3.47998 19.58 4.07998 19.58H5.59998C6.19998 19.58 6.69998 19.08 6.69998 18.48V9.48C6.69998 8.88 6.19998 8.38 5.59998 8.38Z" stroke="currentColor" stroke-width="1.5" stroke-linecap="round" stroke-linejoin="round"/>
  <path d="M12.8 5.19H11.28C10.68 5.19 10.18 5.69 10.18 6.29V18.48C10.18 19.08 10.68 19.58 11.28 19.58H12.8C13.4 19.58 13.9 19.08 13.9 18.48V6.29C13.9 5.69 13.4 5.19 12.8 5.19Z" stroke="currentColor" stroke-width="1.5" stroke-linecap="round" stroke-linejoin="round"/>
  <path d="M19.9999 2H18.4799C17.8799 2 17.3799 2.5 17.3799 3.1V18.48C17.3799 19.08 17.8799 19.58 18.4799 19.58H19.9999C20.5999 19.58 21.0999 19.08 21.0999 18.48V3.1C21.0999 2.5 20.5999 2 19.9999 2Z" stroke="currentColor" stroke-width="1.5" stroke-linecap="round" stroke-linejoin="round"/>
</svg> 